<?xml version="1.0" encoding="utf-8"?>
<!-- Generator: Adobe Illustrator 23.0.3, SVG Export Plug-In . SVG Version: 6.00 Build 0)  -->
<svg version="1.1" id="Layer_1" xmlns="http://www.w3.org/2000/svg" xmlns:xlink="http://www.w3.org/1999/xlink" x="0px" y="0px"
	 viewBox="0 0 210 52" style="enable-background:new 0 0 210 52;" xml:space="preserve">
<style type="text/css">
	.st0{fill:#FFFFFF;}
	.st1{fill:#545554;}
	.st2{fill:#3E3E3D;}
	.st3{fill:#4D4C4D;}
	.st4{fill:#5D5D5D;}
	.st5{fill:#717272;}
</style>
<g>
	<g>
		<path class="st0" d="M50.8,24.2c-0.1,0-0.2,0-0.3,0L41.6,8c0.2-0.3,0.2-0.6,0.2-1c0-1.2-1-2.1-2.1-2.1c-0.6,0-1.2,0.3-1.5,0.7
			L20.6,2c-0.1-1.1-1-1.9-2.1-1.9c-1.2,0-2.1,1-2.1,2.1c0,0.4,0.1,0.7,0.2,1L2.9,22.9c-0.2,0-0.4-0.1-0.6-0.1c-1.2,0-2.1,1-2.1,2.1
			c0,1.2,1,2.1,2.1,2.1l0.1,0l7.4,18.3c-0.1,0.3-0.2,0.6-0.2,0.9c0,1.2,1,2.1,2.1,2.1c0.6,0,1.2-0.3,1.5-0.7l22.2,2.2
			c0.2,0.9,1.1,1.6,2.1,1.6c1.2,0,2.1-1,2.1-2.1c0-0.5-0.2-1-0.5-1.4l11.2-19.5c0.1,0,0.2,0,0.4,0c1.2,0,2.1-1,2.1-2.1
			C52.9,25.2,52,24.2,50.8,24.2z M38,8.3c0.3,0.3,0.6,0.6,1,0.7l-3.4,25.4c-0.2,0-0.4,0.1-0.6,0.2l-18.5-16c0-0.2,0.1-0.4,0.1-0.6
			c0-0.1,0-0.3,0-0.4L38,8.3z M48.7,27l-11.4,7.8c-0.1-0.1-0.2-0.1-0.3-0.2L40.5,9l0,0l8.7,16c-0.3,0.4-0.5,0.9-0.5,1.4
			C48.6,26.6,48.7,26.8,48.7,27z M14.2,15.9c-1,0.2-1.8,1-1.8,2.1l0,0.1l-7.6,4.5L16.6,5.7L14.2,15.9z M15,20.1
			c0.3-0.1,0.6-0.2,0.8-0.3l18.3,15.9C34,35.9,34,36.2,34,36.5l0,0.1L13.5,45c-0.3-0.4-0.8-0.8-1.3-0.9L15,20.1z M34.5,37.9
			c0.3,0.3,0.7,0.5,1.1,0.6l1,8.9c-0.4,0.2-0.8,0.6-1,1l-21.5-2.1L34.5,37.9z M37.1,38.4c0.7-0.3,1.2-1.1,1.2-1.9
			c0-0.2,0-0.4-0.1-0.5l10.4-7.1L38.1,47.1L37.1,38.4z M37.6,6.9l-21.7,9.5c-0.1-0.1-0.2-0.1-0.2-0.2l2.8-11.8l0.1,0
			c0.8,0,1.4-0.4,1.8-1L37.6,6.9L37.6,6.9z M4.5,24.9c0-0.1,0-0.3,0-0.4l8.6-5.1c0.2,0.2,0.4,0.3,0.6,0.4l-2.8,24l-7-17.3
			C4.2,26.1,4.5,25.6,4.5,24.9z"/>
		<path class="st0" d="M77,34.2V18.9c0-7.4,5.6-10.2,12.9-10.2c7.2,0,12.9,2.8,12.9,10.2v15.3c0,7.4-5.7,10.2-12.9,10.2
			C82.6,44.4,77,41.6,77,34.2z M99.6,18.9c0-5.4-3.6-7.8-9.7-7.8c-6.1,0-9.7,2.5-9.7,7.8v15.3c0,5.4,3.6,7.8,9.7,7.8
			c6.1,0,9.7-2.5,9.7-7.8V18.9z"/>
		<path class="st0" d="M134.5,42.3l-18.8-27.8V43c0,0.7-0.8,1.1-1.6,1.1c-0.8,0-1.6-0.3-1.6-1.1V9.8c0-0.8,0.8-1,1.6-1
			c1.2,0,2,1.2,2.6,2l18.5,27.6V9.8c0-0.7,0.8-1,1.6-1c0.8,0,1.6,0.3,1.6,1V43c0,0.7-0.8,1.1-1.6,1.1
			C135.8,44.1,135.1,43.1,134.5,42.3z"/>
		<path class="st0" d="M170.5,42.3l-18.8-27.8V43c0,0.7-0.8,1.1-1.6,1.1c-0.8,0-1.6-0.3-1.6-1.1V9.8c0-0.8,0.8-1,1.6-1
			c1.2,0,2,1.2,2.6,2l18.5,27.6V9.8c0-0.7,0.8-1,1.6-1c0.8,0,1.6,0.3,1.6,1V43c0,0.7-0.8,1.1-1.6,1.1
			C171.9,44.1,171.1,43.1,170.5,42.3z"/>
		<path class="st0" d="M194.3,28.7l-9.5,13.8c-0.4,0.7-1,1.6-1.9,1.6c-0.8,0-1.8-0.5-1.8-1.2c0-0.2,0.1-0.4,0.3-0.6l11-15.9
			l-10.8-15.8c-0.3-0.3-0.4-0.6-0.4-0.9c0-0.6,0.8-1,1.8-1c0.9,0,1.5,0.9,2,1.7l9.3,13.7l9.3-13.7c0.5-0.7,1.1-1.7,2-1.7
			c1,0,1.8,0.4,1.8,1c0,0.3-0.1,0.6-0.4,0.9l-10.9,15.8l11.1,15.9c0.1,0.2,0.3,0.4,0.3,0.6c0,0.7-0.9,1.2-1.8,1.2
			c-1,0-1.5-1-1.9-1.6L194.3,28.7z"/>
	</g>
	<path class="st1" d="M40.5,9l8.7,16c-0.3,0.4-0.5,0.9-0.5,1.4c0,0.2,0,0.4,0.1,0.6l-11.4,7.8c-0.1-0.1-0.2-0.1-0.3-0.2L40.5,9
		L40.5,9"/>
	<path class="st2" d="M37.1,38.4c0.7-0.3,1.2-1.1,1.2-1.9c0-0.2,0-0.4-0.1-0.5l10.4-7.1L38.1,47.1L37.1,38.4z"/>
	<path class="st3" d="M34.5,37.9c0.3,0.3,0.7,0.5,1.1,0.6l1,8.9c-0.4,0.2-0.8,0.6-1,1l-21.5-2.1L34.5,37.9z"/>
	<path class="st4" d="M15,20.1c0.3-0.1,0.6-0.2,0.8-0.3l18.3,15.9C34,35.9,34,36.2,34,36.5l0,0.1L13.5,45c-0.3-0.4-0.8-0.8-1.3-0.9
		L15,20.1z"/>
	<path class="st3" d="M4.5,24.9c0-0.1,0-0.3,0-0.4l8.6-5.1c0.2,0.2,0.4,0.3,0.6,0.4l-2.8,24l-7-17.3C4.2,26.1,4.5,25.6,4.5,24.9z"/>
	<path class="st2" d="M14.2,15.9c-1,0.2-1.8,1-1.8,2.1l0,0.1l-7.6,4.5L16.6,5.7L14.2,15.9z"/>
	<path class="st1" d="M37.6,6.9l-21.7,9.5c-0.1-0.1-0.2-0.1-0.2-0.2l2.8-11.8l0.1,0c0.8,0,1.4-0.4,1.8-1L37.6,6.9L37.6,6.9z"/>
	<path class="st5" d="M38,8.3c0.3,0.3,0.6,0.6,1,0.7l-3.4,25.4c-0.2,0-0.4,0.1-0.6,0.2l-18.5-16c0-0.2,0.1-0.4,0.1-0.6
		c0-0.1,0-0.3,0-0.4L38,8.3z"/>
</g>
<g>
</g>
<g>
</g>
<g>
</g>
<g>
</g>
<g>
</g>
<g>
</g>
<g>
</g>
<g>
</g>
<g>
</g>
<g>
</g>
<g>
</g>
<g>
</g>
<g>
</g>
<g>
</g>
<g>
</g>
</svg>
